<svg width="60" height="60" viewBox="0 0 60 60" fill="white" xmlns="http://www.w3.org/2000/svg">
<path d="M45.0944 15.8433C42.2263 14.5272 39.1506 13.5577 35.9348 13.0023C35.8762 12.9916 35.8177 13.0184 35.7876 13.072C35.392 13.7755 34.9539 14.6933 34.647 15.4147C31.1883 14.8969 27.7472 14.8969 24.3594 15.4147C24.0525 14.6773 23.5984 13.7755 23.2011 13.072C23.1709 13.0202 23.1124 12.9934 23.0538 13.0023C19.8398 13.5559 16.7642 14.5255 13.8943 15.8433C13.8694 15.854 13.8481 15.8719 13.834 15.8951C8.00011 24.6107 6.40197 33.1122 7.18596 41.5082C7.18951 41.5493 7.21257 41.5886 7.2445 41.6136C11.0935 44.4402 14.822 46.1562 18.4811 47.2936C18.5397 47.3115 18.6018 47.2901 18.639 47.2419C19.5046 46.0598 20.2762 44.8134 20.9378 43.5027C20.9768 43.426 20.9395 43.3349 20.8597 43.3046C19.6359 42.8403 18.4705 42.2742 17.3495 41.6314C17.2608 41.5797 17.2537 41.4528 17.3353 41.3921C17.5712 41.2153 17.8072 41.0314 18.0324 40.8457C18.0732 40.8118 18.13 40.8046 18.1779 40.8261C25.5424 44.1885 33.5154 44.1885 40.793 40.8261C40.841 40.8029 40.8977 40.81 40.9403 40.8439C41.1656 41.0296 41.4015 41.2153 41.6392 41.3921C41.7207 41.4528 41.7154 41.5797 41.6267 41.6314C40.5057 42.2867 39.3404 42.8403 38.1147 43.3028C38.0349 43.3331 37.9994 43.426 38.0385 43.5027C38.7142 44.8116 39.4858 46.058 40.3354 47.2401C40.3709 47.2901 40.4347 47.3115 40.4933 47.2936C44.1703 46.1562 47.8987 44.4402 51.7477 41.6136C51.7814 41.5886 51.8027 41.5511 51.8062 41.51C52.7445 31.8033 50.2347 23.3715 45.1529 15.8968C45.1405 15.8719 45.1192 15.854 45.0944 15.8433ZM22.0375 36.3959C19.8203 36.3959 17.9934 34.3603 17.9934 31.8604C17.9934 29.3605 19.7849 27.3249 22.0375 27.3249C24.3079 27.3249 26.1171 29.3784 26.0816 31.8604C26.0816 34.3603 24.2901 36.3959 22.0375 36.3959ZM36.9902 36.3959C34.773 36.3959 32.946 34.3603 32.946 31.8604C32.946 29.3605 34.7375 27.3249 36.9902 27.3249C39.2606 27.3249 41.0698 29.3784 41.0343 31.8604C41.0343 34.3603 39.2606 36.3959 36.9902 36.3959Z" fill="inherit"/>
</svg>
