<svg width="60" height="60" viewBox="0 0 60 60" fill="white" xmlns="http://www.w3.org/2000/svg">
<path d="M30.005 52.6027C23.855 52.6027 23.13 52.5702 20.73 52.4652C18.8584 52.4037 17.0111 52.0232 15.2675 51.3402C12.2508 50.1662 9.86536 47.7799 8.6925 44.7627C8.03577 43.0128 7.68155 41.1639 7.645 39.2952C7.505 36.9002 7.505 36.1152 7.505 30.0127C7.505 23.8452 7.5375 23.1252 7.645 20.7377C7.68235 18.8715 8.03656 17.0252 8.6925 15.2777C9.86408 12.2565 12.2534 9.86813 15.275 8.6977C17.0216 8.0382 18.8684 7.68306 20.735 7.6477C23.1225 7.5127 23.9075 7.5127 30.005 7.5127C36.205 7.5127 36.9175 7.5452 39.28 7.6477C41.1515 7.68336 43.0031 8.03847 44.755 8.6977C47.7758 9.86945 50.1646 12.2574 51.3375 15.2777C52.0053 17.0507 52.3614 18.9258 52.39 20.8202C52.53 23.2152 52.53 23.9977 52.53 30.0977C52.53 36.1977 52.495 36.9977 52.39 39.3652C52.3528 41.2357 51.9977 43.0862 51.34 44.8377C50.1642 47.857 47.7752 50.2441 44.755 51.4177C43.0056 52.0732 41.1578 52.4274 39.29 52.4652C36.9025 52.6027 36.12 52.6027 30.005 52.6027ZM29.92 11.4702C23.805 11.4702 23.17 11.5002 20.7825 11.6077C19.3575 11.6266 17.9462 11.8895 16.61 12.3852C14.6369 13.1402 13.0756 14.6952 12.3125 16.6652C11.813 18.0159 11.55 19.4426 11.535 20.8827C11.4025 23.3052 11.4025 23.9402 11.4025 30.0127C11.4025 36.0127 11.425 36.7402 11.535 39.1477C11.5574 40.5732 11.8202 41.9847 12.3125 43.3227C13.0767 45.2914 14.6377 46.8452 16.61 47.6002C17.9453 48.0991 19.3571 48.3622 20.7825 48.3777C23.2025 48.5177 23.84 48.5177 29.92 48.5177C36.0525 48.5177 36.6875 48.4877 39.055 48.3777C40.481 48.3603 41.8933 48.0973 43.23 47.6002C45.1912 46.8387 46.7423 45.2884 47.505 43.3277C48.0035 41.9758 48.2665 40.5485 48.2825 39.1077H48.31C48.4175 36.7177 48.4175 36.0802 48.4175 29.9727C48.4175 23.8652 48.39 23.2227 48.2825 20.8352C48.2601 19.4113 47.9972 18.0015 47.505 16.6652C46.7441 14.7016 45.1927 13.1484 43.23 12.3852C41.8936 11.887 40.4811 11.624 39.055 11.6077C36.6375 11.4702 36.005 11.4702 29.92 11.4702ZM30.005 41.5602C25.33 41.5632 21.1136 38.7495 19.3222 34.4313C17.5308 30.1131 18.5173 25.141 21.8216 21.8338C25.1259 18.5267 30.0972 17.5359 34.4169 19.3235C38.7366 21.1112 41.554 25.3252 41.555 30.0002C41.5481 36.3779 36.3827 41.5478 30.005 41.5602ZM30.005 22.4952C25.8629 22.4952 22.505 25.8531 22.505 29.9952C22.505 34.1373 25.8629 37.4952 30.005 37.4952C34.1471 37.4952 37.505 34.1373 37.505 29.9952C37.4954 25.8571 34.1431 22.5048 30.005 22.4952ZM42.005 20.7127C40.5186 20.7072 39.3173 19.4992 39.32 18.0127C39.3228 16.5263 40.5285 15.3227 42.015 15.3227C43.5015 15.3227 44.7072 16.5262 44.71 18.0127C44.7107 18.7299 44.4257 19.4178 43.9182 19.9244C43.4106 20.431 42.7222 20.7147 42.005 20.7127Z" fill="inherit"/>
</svg>
