<svg width="424" height="374" xmlns="http://www.w3.org/2000/svg" fill="#5097CC">

 <g>
  <path id="svg_1" d="m167.28906,272.13281c-1.60156,0 -3.21484,-0.55078 -4.53125,-1.67187l-45.29687,-38.57031c-1.5625,-1.33204 -2.46094,-3.27735 -2.46094,-5.33204c0,-2.05078 0.90234,-3.99609 2.46094,-5.32812l45.29687,-38.57031c2.94141,-2.50782 7.35938,-2.15235 9.86719,0.78906c2.50391,2.94531 2.15234,7.36328 -0.79297,9.86719l-39.03515,33.24218l39.03515,33.24219c2.94531,2.50781 3.29688,6.92578 0.79297,9.86719c-1.38672,1.62891 -3.35547,2.46484 -5.33594,2.46484zm0,0"/>
  <path id="svg_2" d="m256.71094,272.13281c-1.98047,0 -3.94922,-0.83593 -5.33203,-2.46484c-2.50782,-2.94141 -2.15235,-7.35938 0.78906,-9.86719l39.03516,-33.24219l-39.03516,-33.24218c-2.94141,-2.50391 -3.29688,-6.92188 -0.78906,-9.86719c2.5039,-2.94141 6.92578,-3.29688 9.86328,-0.78906l45.29687,38.57031c1.5625,1.33203 2.46094,3.27734 2.46094,5.32812c0,2.05469 -0.89844,4 -2.46094,5.33204l-45.29687,38.57031c-1.31641,1.12109 -2.92969,1.67187 -4.53125,1.67187zm0,0"/>
  <path transform="matrix(1 0 0 1 0 0) matrix(1 0 0 1 0 0) matrix(1 0 0 1 0 0) matrix(1 0 0 1 0 0) matrix(1 0 0 1 0 0) matrix(1 0 0 1 0 0)" id="svg_3" d="m193.96484,301.0625c-0.48046,0 -0.96484,-0.05078 -1.45312,-0.15234c-3.78125,-0.79688 -6.20313,-4.51172 -5.40625,-8.29297l28.23047,-134.03516c0.79687,-3.78125 4.50781,-6.20312 8.29297,-5.40625c3.78125,0.79688 6.20312,4.50781 5.40625,8.29297l-28.23047,134.03516c-0.69531,3.29687 -3.60156,5.55859 -6.83985,5.55859zm0,0"/>
  <path stroke="null" stroke-width="0" id="svg_4" d="m377,374.08594l-330,0c-25.91406,0 -47,-21.08203 -47,-47l0,-280.08594c0,-25.91406 21.08594,-47 47,-47l330,0c25.91406,0 47,21.08594 47,47l0,280.08594c0,25.91797 -21.08594,47 -47,47zm-330,-360.08594c-18.19531,0 -33,14.80469 -33,33l0,280.08594c0,18.19531 14.80469,33 33,33l330,0c18.19531,0 33,-14.80469 33,-33l0,-280.08594c0,-18.19531 -14.80469,-33 -33,-33l-330,0zm0,0"/>
  <path id="svg_5" d="m417,112.08984l-410,0c-3.86719,0 -7,-3.13281 -7,-7c0,-3.86328 3.13281,-7 7,-7l410,0c3.86719,0 7,3.13672 7,7c0,3.86719 -3.13281,7 -7,7zm0,0"/>
  <path transform="matrix(1 0 0 1 0 0) matrix(1 0 0 1 0 0) matrix(1 0 0 1 0 0) matrix(1 0 0 1 0 0) matrix(1 0 0 1 0 0) matrix(1 0 0 1 0 0)" id="svg_6" d="m119.60156,78.59375c-12.21093,0 -22.15234,-9.94141 -22.15234,-22.15234c0,-12.21485 9.94141,-22.15235 22.15234,-22.15235c12.21485,0 22.15235,9.9375 22.15235,22.15235c0,12.21093 -9.9375,22.15234 -22.15235,22.15234zm0,-30.30469c-4.49218,0 -8.15234,3.65625 -8.15234,8.15235s3.66016,8.15234 8.15234,8.15234c4.4961,0 8.15235,-3.65625 8.15235,-8.15234s-3.65625,-8.15235 -8.15235,-8.15235zm0,0"/>
  <path transform="matrix(1 0 0 1 0 0) matrix(1 0 0 1 0 0) matrix(1 0 0 1 0 0) matrix(1 0 0 1 0 0) matrix(1 0 0 1 0 0) matrix(1 0 0 1 0 0)" id="svg_7" d="m51.53906,78.37891c-12.21484,0 -22.15234,-9.9375 -22.15234,-22.15235c0,-12.21484 9.9375,-22.15234 22.15234,-22.15234c12.21485,0 22.15235,9.9375 22.15235,22.15234c0,12.21485 -9.9375,22.15235 -22.15235,22.15235zm0,-30.30469c-4.49218,0 -8.15234,3.66016 -8.15234,8.15234c0,4.4961 3.66016,8.15235 8.15234,8.15235c4.4961,0 8.15235,-3.65625 8.15235,-8.15235c0,-4.49218 -3.65625,-8.15234 -8.15235,-8.15234zm0,0"/>
  <path transform="matrix(1 0 0 1 0 0) matrix(1 0 0 1 0 0) matrix(1 0 0 1 0 0) matrix(1 0 0 1 0 0) matrix(1 0 0 1 0 0) matrix(1 0 0 1 0 0)" id="svg_8" d="m187.66406,78.80469c-12.21093,0 -22.14843,-9.9375 -22.14843,-22.15235c0,-12.21093 9.9375,-22.14843 22.14843,-22.14843c12.21485,0 22.15235,9.9375 22.15235,22.14843c0,12.21485 -9.9375,22.15235 -22.15235,22.15235zm0,-30.30469c-4.49218,0 -8.14843,3.65625 -8.14843,8.15234s3.65625,8.15235 8.14843,8.15235c4.4961,0 8.15235,-3.65625 8.15235,-8.15235s-3.65625,-8.15234 -8.15235,-8.15234zm0,0"/>
 </g>
</svg>