<svg width="60" height="60" viewBox="0 0 60 60" fill="white" xmlns="http://www.w3.org/2000/svg">
<path d="M30.065 5C17.8323 4.99843 7.40453 13.87 5.44599 25.9448C3.48745 38.0197 10.5765 49.7324 22.1825 53.5975C23.4325 53.8225 23.88 53.055 23.88 52.395C23.88 51.8025 23.86 50.2325 23.8525 48.145C16.915 49.645 15.45 44.8 15.45 44.8C14.9933 43.2924 14.0114 41.9983 12.6825 41.1525C10.4325 39.605 12.855 39.64 12.855 39.64C14.4567 39.8596 15.8664 40.8086 16.6725 42.21C17.3548 43.4506 18.5044 44.3674 19.8658 44.7566C21.2271 45.1457 22.6875 44.9751 23.9225 44.2825C24.0385 43.0175 24.6013 41.8352 25.51 40.9475C19.975 40.32 14.155 38.18 14.155 28.6225C14.1243 26.1505 15.0422 23.7607 16.72 21.945C15.9609 19.7933 16.0503 17.4331 16.97 15.345C16.97 15.345 19.0625 14.6725 23.825 17.8975C27.9096 16.7775 32.2204 16.7775 36.305 17.8975C41.07 14.67 43.16 15.345 43.16 15.345C44.084 17.4321 44.1734 19.7939 43.41 21.945C45.0939 23.7606 46.0111 26.1566 45.97 28.6325C45.97 38.215 40.145 40.32 34.59 40.9375C35.7883 42.1626 36.4029 43.8433 36.2775 45.5525C36.2775 48.8875 36.2475 51.5775 36.2475 52.395C36.2475 53.0625 36.6925 53.8375 37.965 53.5925C49.5662 49.7209 56.6476 38.0074 54.685 25.9358C52.7225 13.8641 42.2951 4.9972 30.065 5Z" fill="inherit"/>
</svg>
