<svg width="60" height="60" viewBox="0 0 60 60" fill="white"
    xmlns="http://www.w3.org/2000/svg">
    <mask id="mask">
        <rect x="0" y="0" width="60" height="60" fill="#fff"/>
        <path d="M19.6261 48.3501V23.8424H11.4802V48.3501H19.627H19.6261ZM15.5548 20.4969C18.3949 20.4969 20.1631 18.615 20.1631 16.2631C20.1099 13.8577 18.3949 12.0283 15.6089 12.0283C12.8209 12.0283 11 13.8577 11 16.2629C11 18.6148 12.7675 20.4967 15.5015 20.4967H15.5542L15.5548 20.4969ZM24.1351 48.3501H32.2804V34.6654C32.2804 33.9339 32.3336 33.2005 32.5488 32.678C33.1374 31.2139 34.4777 29.6984 36.7285 29.6984C39.6753 29.6984 40.8549 31.9457 40.8549 35.2406V48.3501H49V34.2981C49 26.7707 44.9819 23.2679 39.6226 23.2679C35.2287 23.2679 33.299 25.7237 32.2268 27.3963H32.281V23.8433H24.1355C24.2418 26.1424 24.1348 48.351 24.1348 48.351L24.1351 48.3501Z" fill="#000"/>
    </mask>
    <path mask="url(#mask)" d="M7 10.2518C7 8.47254 8.48957 7.02832 10.3258 7.02832H48.6742C50.5111 7.02832 52 8.47254 52 10.2518V48.8054C52 50.5852 50.5111 52.0283 48.6742 52.0283H10.3258C8.48975 52.0283 7 50.5853 7 48.8059V10.2513V10.2518Z" fill="inherit"/>
</svg>
