<svg height="512" viewBox="0 0 64 64" width="512" xmlns="http://www.w3.org/2000/svg" fill="#5097CC"><g id="Layer_21" data-name="Layer 21"><path d="m58 1h-52a5.006 5.006 0 0 0 -5 5v40a5.006 5.006 0 0 0 5 5h15.719l-1.5 6h-1.219a4 4 0 0 0 -4 4v1a1 1 0 0 0 1 1h32a1 1 0 0 0 1-1v-1a4 4 0 0 0 -4-4h-1.219l-1.5-6h15.719a5.006 5.006 0 0 0 5-5v-40a5.006 5.006 0 0 0 -5-5zm-11 60h-30a2 2 0 0 1 2-2h26a2 2 0 0 1 2 2zm-5.281-4h-19.438l1.5-6h16.438zm19.281-11a3 3 0 0 1 -3 3h-52a3 3 0 0 1 -3-3v-40a3 3 0 0 1 3-3h52a3 3 0 0 1 3 3z"/><path d="m58 5h-52a1 1 0 0 0 -1 1v36a1 1 0 0 0 1 1h52a1 1 0 0 0 1-1v-36a1 1 0 0 0 -1-1zm-1 2v6h-50v-6zm-50 34v-26h50v26z"/><path d="m51 45h2v2h-2z"/><path d="m55 45h2v2h-2z"/><path d="m53 9h2v2h-2z"/><path d="m49 9h2v2h-2z"/><path d="m45 9h2v2h-2z"/><path d="m15 27h-1a1 1 0 0 1 -1-1v-1a1 1 0 0 0 -.293-.707l-1.293-1.293 1.293-1.293a1 1 0 0 0 .293-.707v-1a1 1 0 0 1 1-1h1v-2h-1a3 3 0 0 0 -3 3v.586l-1.707 1.707a1 1 0 0 0 0 1.414l1.707 1.707v.586a3 3 0 0 0 3 3h1z"/><path d="m53 30.586v-.586a3 3 0 0 0 -3-3h-1v2h1a1 1 0 0 1 1 1v1a1 1 0 0 0 .293.707l1.293 1.293-1.293 1.293a1 1 0 0 0 -.293.707v1a1 1 0 0 1 -1 1h-1v2h1a3 3 0 0 0 3-3v-.586l1.707-1.707a1 1 0 0 0 0-1.414z"/><path d="m16 20h33v2h-33z"/><path d="m16 24h29v2h-29z"/><path d="m47 24h2v2h-2z"/><path d="m15 30h34v2h-34z"/><path d="m15 34h30v2h-30z"/><path d="m47 34h2v2h-2z"/></g></svg>