<svg viewBox="0 0 600 600" xmlns="http://www.w3.org/2000/svg"><style>g{--color:currentColor}</style><g opacity=".8"><g fill="none" stroke-linejoin="round" stroke-width="2.5" opacity="1" stroke="var(--color)"><path d="m252 487 7-17zM263 473l5 5-5 5 5-5zM248 483l-5-5 5-5-5 5z" stroke-width="1.613525"/></g><g fill="none" stroke-linejoin="round" stroke-width="2.5" opacity="1" stroke="var(--color)"><path d="m215 159 6-17zM225 146l5 5-5 4 5-4zM211 155l-5-5 5-4-5 4z" stroke-width="1.613525"/></g><g transform="translate(314 21) scale(.26248)" fill="none" opacity="1" stroke="var(--color)" stroke-linejoin="round"><path d="m294 210-1-1-1-8c-2 0-4-1-5-3l-8 3h-1l-6-10v-2l6-5v-6l-6-5v-1l6-11h1l8 3 5-3 1-8 1-1h12l1 1 1 8 5 3 8-3h1l6 11v1l-6 5v6l6 5v2l-6 10h-1l-8-3c-1 2-3 3-5 3l-1 8-1 1h-12" stroke-width="4.8"/><circle cx="300.6" cy="181.8" r="11.8" stroke-linecap="round" stroke-width="4.1" style="paint-order:normal"/></g><g transform="translate(252 -7) scale(.39352)" fill="none" opacity="1" stroke="var(--color)" stroke-linejoin="round"><path d="m294 210-1-1-1-8c-2 0-4-1-5-3l-8 3h-1l-6-10v-2l6-5v-6l-6-5v-1l6-11h1l8 3 5-3 1-8 1-1h12l1 1 1 8 5 3 8-3h1l6 11v1l-6 5v6l6 5v2l-6 10h-1l-8-3c-1 2-3 3-5 3l-1 8-1 1h-12" stroke-width="4.8"/><circle cx="299.9" cy="181" r="17" stroke-linecap="round" stroke-width="5.2" style="paint-order:normal"/></g><g transform="translate(203 87) scale(.39352)" fill="none" opacity="1" stroke="var(--color)" stroke-linejoin="round"><path d="m356 236-2-1-1-8c-2 0-3-1-5-3l-7 3h-2l-6-10 1-2 6-5v-6l-6-5-1-1 6-11h2l7 3 5-3 1-8 2-1h11l2 1 1 8 5 3 7-3h2l6 11-1 1-6 5v6l6 5 1 2-6 10h-2l-7-3c-2 2-3 3-5 3l-1 8-2 1h-11" stroke-width="4.8"/><circle cx="361.4" cy="207" r="17" stroke-linecap="round" stroke-width="5.2" style="paint-order:normal"/></g><g transform="translate(57 165) scale(.39352)" fill="none" opacity="1" stroke="var(--color)" stroke-linejoin="round"><path d="m356 236-2-1-1-8c-2 0-3-1-5-3l-7 3h-2l-6-10 1-2 6-5v-6l-6-5-1-1 6-11h2l7 3 5-3 1-8 2-1h11l2 1 1 8 5 3 7-3h2l6 11-1 1-6 5v6l6 5 1 2-6 10h-2l-7-3c-2 2-3 3-5 3l-1 8-2 1h-11" stroke-width="4.8"/><circle cx="361.4" cy="207" r="17" stroke-linecap="round" stroke-width="5.2" style="paint-order:normal"/></g><g transform="translate(-39 265) scale(.39352)" fill="none" opacity="1" stroke="var(--color)" stroke-linejoin="round"><path d="m356 236-2-1-1-8c-2 0-3-1-5-3l-7 3h-2l-6-10 1-2 6-5v-6l-6-5-1-1 6-11h2l7 3 5-3 1-8 2-1h11l2 1 1 8 5 3 7-3h2l6 11-1 1-6 5v6l6 5 1 2-6 10h-2l-7-3c-2 2-3 3-5 3l-1 8-2 1h-11" stroke-width="4.8"/><circle cx="361.4" cy="207" r="17" stroke-linecap="round" stroke-width="5.2" style="paint-order:normal"/></g><g transform="translate(-21 385) scale(.39352)" fill="none" opacity="1" stroke="var(--color)" stroke-linejoin="round"><path d="m356 236-2-1-1-8c-2 0-3-1-5-3l-7 3h-2l-6-10 1-2 6-5v-6l-6-5-1-1 6-11h2l7 3 5-3 1-8 2-1h11l2 1 1 8 5 3 7-3h2l6 11-1 1-6 5v6l6 5 1 2-6 10h-2l-7-3c-2 2-3 3-5 3l-1 8-2 1h-11" stroke-width="4.8"/><circle cx="361.4" cy="207" r="17" stroke-linecap="round" stroke-width="5.2" style="paint-order:normal"/></g><g transform="translate(115 420) scale(.39352)" fill="none" opacity="1" stroke="var(--color)" stroke-linejoin="round"><path d="m356 236-2-1-1-8c-2 0-3-1-5-3l-7 3h-2l-6-10 1-2 6-5v-6l-6-5-1-1 6-11h2l7 3 5-3 1-8 2-1h11l2 1 1 8 5 3 7-3h2l6 11-1 1-6 5v6l6 5 1 2-6 10h-2l-7-3c-2 2-3 3-5 3l-1 8-2 1h-11" stroke-width="4.8"/><circle cx="361.4" cy="207" r="17" stroke-linecap="round" stroke-width="5.2" style="paint-order:normal"/></g><g transform="translate(103 372) scale(.39352)" fill="none" opacity="1" stroke="var(--color)" stroke-linejoin="round"><path d="m356 236-2-1-1-8c-2 0-3-1-5-3l-7 3h-2l-6-10 1-2 6-5v-6l-6-5-1-1 6-11h2l7 3 5-3 1-8 2-1h11l2 1 1 8 5 3 7-3h2l6 11-1 1-6 5v6l6 5 1 2-6 10h-2l-7-3c-2 2-3 3-5 3l-1 8-2 1h-11" stroke-width="4.8"/><circle cx="361.4" cy="207" r="17" stroke-linecap="round" stroke-width="5.2" style="paint-order:normal"/></g><g transform="translate(246 290) scale(.39352)" fill="none" opacity="1" stroke="var(--color)" stroke-linejoin="round"><path d="m356 236-2-1-1-8c-2 0-3-1-5-3l-7 3h-2l-6-10 1-2 6-5v-6l-6-5-1-1 6-11h2l7 3 5-3 1-8 2-1h11l2 1 1 8 5 3 7-3h2l6 11-1 1-6 5v6l6 5 1 2-6 10h-2l-7-3c-2 2-3 3-5 3l-1 8-2 1h-11" stroke-width="4.8"/><circle cx="361.4" cy="207" r="17" stroke-linecap="round" stroke-width="5.2" style="paint-order:normal"/></g><g transform="translate(-22 49) scale(.39352)" fill="none" opacity="1" stroke="var(--color)" stroke-linejoin="round"><path d="m356 236-2-1-1-8c-2 0-3-1-5-3l-7 3h-2l-6-10 1-2 6-5v-6l-6-5-1-1 6-11h2l7 3 5-3 1-8 2-1h11l2 1 1 8 5 3 7-3h2l6 11-1 1-6 5v6l6 5 1 2-6 10h-2l-7-3c-2 2-3 3-5 3l-1 8-2 1h-11" stroke-width="4.8"/><circle cx="361.4" cy="207" r="17" stroke-linecap="round" stroke-width="5.2" style="paint-order:normal"/></g><g transform="translate(-66 118) scale(.39352)" fill="none" opacity="1" stroke="var(--color)" stroke-linejoin="round"><path d="m356 236-2-1-1-8c-2 0-3-1-5-3l-7 3h-2l-6-10 1-2 6-5v-6l-6-5-1-1 6-11h2l7 3 5-3 1-8 2-1h11l2 1 1 8 5 3 7-3h2l6 11-1 1-6 5v6l6 5 1 2-6 10h-2l-7-3c-2 2-3 3-5 3l-1 8-2 1h-11" stroke-width="4.8"/><circle cx="361.4" cy="207" r="17" stroke-linecap="round" stroke-width="5.2" style="paint-order:normal"/></g><g transform="translate(250 137) scale(.39352)" fill="none" opacity="1" stroke="var(--color)" stroke-linejoin="round"><path d="m356 236-2-1-1-8c-2 0-3-1-5-3l-7 3h-2l-6-10 1-2 6-5v-6l-6-5-1-1 6-11h2l7 3 5-3 1-8 2-1h11l2 1 1 8 5 3 7-3h2l6 11-1 1-6 5v6l6 5 1 2-6 10h-2l-7-3c-2 2-3 3-5 3l-1 8-2 1h-11" stroke-width="4.8"/><circle cx="361.4" cy="207" r="17" stroke-linecap="round" stroke-width="5.2" style="paint-order:normal"/></g><g transform="translate(227 185) scale(.39352)" fill="none" opacity="1" stroke="var(--color)" stroke-linejoin="round"><path d="m356 236-2-1-1-8c-2 0-3-1-5-3l-7 3h-2l-6-10 1-2 6-5v-6l-6-5-1-1 6-11h2l7 3 5-3 1-8 2-1h11l2 1 1 8 5 3 7-3h2l6 11-1 1-6 5v6l6 5 1 2-6 10h-2l-7-3c-2 2-3 3-5 3l-1 8-2 1h-11" stroke-width="4.8"/><circle cx="361.4" cy="207" r="17" stroke-linecap="round" stroke-width="5.2" style="paint-order:normal"/></g><g transform="translate(384 123) scale(.39352)" fill="none" opacity="1" stroke="var(--color)" stroke-linejoin="round"><path d="m356 236-2-1-1-8c-2 0-3-1-5-3l-7 3h-2l-6-10 1-2 6-5v-6l-6-5-1-1 6-11h2l7 3 5-3 1-8 2-1h11l2 1 1 8 5 3 7-3h2l6 11-1 1-6 5v6l6 5 1 2-6 10h-2l-7-3c-2 2-3 3-5 3l-1 8-2 1h-11" stroke-width="4.8"/><circle cx="361.4" cy="207" r="17" stroke-linecap="round" stroke-width="5.2" style="paint-order:normal"/></g><g fill="none" opacity="1" stroke="var(--color)"><g stroke-width="2.3"><path d="M361 81h73v57h-73zM361 90h72z"/></g><path d="m392 127 10-25zM408 106l8 8-8 8 8-8zM386 122l-8-8 8-8-8 8z" stroke-linejoin="round" stroke-width="2.5"/></g><g fill="none" opacity="1" stroke="var(--color)"><g stroke-width="2.3"><path d="M94 146h73v57H94zM94 155h72z"/></g><path opacity="1" stroke-linecap="round" stroke-linejoin="round" stroke-width="1.6" d="M100 163h13v0h-13z"/><path stroke-linecap="round" stroke-linejoin="round" stroke-width="1.6" d="M119 163h13v0h-13z"/><path stroke-linecap="round" stroke-linejoin="round" stroke-width="1.3" d="M110 169h7v1h-7z"/><path stroke-linecap="round" stroke-linejoin="round" stroke-width="1.7" d="M122 169h27v1h-27z"/><path stroke-linecap="round" stroke-linejoin="round" stroke-width="1.8" d="M119 176h35v0h-35z"/><path stroke-linecap="round" stroke-linejoin="round" stroke-width="1.5" d="M100 183h13v0h-13zM119 183h13v0h-13z"/><path stroke-linecap="round" stroke-linejoin="round" stroke-width="1.8" d="M111 189h34v0h-34z"/><path stroke-linecap="round" stroke-linejoin="round" stroke-width="1.3" d="M113 196h7v0h-7z"/><path stroke-linecap="round" stroke-linejoin="round" stroke-width="1.8" d="M126 196h28v0h-28z"/></g><g opacity="1"><path d="M94 390v62h78v-3l-2-2v3H96v-57h74v43h1l1 2v-48z" color="#000" fill="var(--color)" style="-inkscape-stroke:none"/><path d="M95 401h76z" fill="none" stroke="var(--color)" stroke-width="2.39982"/><path d="M99 396h3-3zM106 396h3-3zM113 396h3-3z" fill="none" stroke="var(--color)" stroke-linejoin="round" stroke-width="2.3"/><path d="M102 410h18v0h-18z" fill="none" opacity="1" stroke="var(--color)" stroke-linecap="round" stroke-linejoin="round" stroke-width="1.6"/><path d="M102 418h35v0h-35zM102 426h35v0h-35zM102 434h39v0h-39zM102 442h30v0h-30z" fill="none" stroke="var(--color)" stroke-linecap="round" stroke-linejoin="round" stroke-width="1.8"/></g><g fill="var(--color)" stroke="none" opacity="1"><path d="M272 493v62h78v-28l-2 3v22h-73v-57h73v17l2-2v-17zm92 4zm-34 32z" color="#000" style="-inkscape-stroke:none"/><path transform="translate(-103 410) scale(1.0434)" d="M361 89v2h73v-2z" color="#000" style="-inkscape-stroke:none"/><path d="M99 394a1 1 0 0 0-1 2 1 1 0 0 0 1 1h3a1 1 0 0 0 1-1 1 1 0 0 0-1-2zM106 394a1 1 0 0 0-1 2 1 1 0 0 0 1 1h3a1 1 0 0 0 1-1 1 1 0 0 0-1-2zM113 394a1 1 0 0 0-1 2 1 1 0 0 0 1 1h3a1 1 0 0 0 2-1 1 1 0 0 0-2-2zM102 409a1 1 0 0 0-1 1 1 1 0 0 0 1 1h18a1 1 0 0 0 1-1 1 1 0 0 0-1-1zM102 417a1 1 0 0 0-1 1 1 1 0 0 0 1 1h57a1 1 0 0 0 0-1 1 1 0 0 0 0-1zM102 425a1 1 0 0 0-1 1 1 1 0 0 0 1 1h50a1 1 0 0 0 1-1 1 1 0 0 0-1-1zM102 433a1 1 0 0 0-1 1 1 1 0 0 0 1 1h47a1 1 0 0 0 1-1 1 1 0 0 0-1-1zM102 441a1 1 0 0 0-1 1 1 1 0 0 0 1 1h30a1 1 0 0 0 1-1 1 1 0 0 0-1-1z" color="#000" style="-inkscape-stroke:none" transform="translate(178 103)"/></g><g fill="none" stroke-linejoin="round" stroke-width="2.5" opacity="1" stroke="var(--color)"><path d="m476 139 6-17zM486 125l5 5-5 5 5-5zM472 135l-5-5 5-5-5 5z" stroke-width="1.613525"/></g><g fill="none" stroke-linejoin="round" stroke-width="2.5" opacity="1" stroke="var(--color)"><path d="m199 423 6-16zM209 410l5 5-5 5 5-5zM194 420l-4-5 5-5-5 5z" stroke-width="1.613525"/></g><g fill="none" stroke-linejoin="round" stroke-width="2.5" opacity="1" stroke="var(--color)"><path d="m451 232 7-17zM462 219l4 5-5 4 5-4zM447 228l-5-5 5-4-5 4z" stroke-width="1.613525"/></g><g fill="none" stroke-linejoin="round" stroke-width="2.5" opacity="1" stroke="var(--color)"><path d="m138 278 7-17zM149 264l4 5-4 5 4-5zM134 274l-5-5 5-5-5 5z" stroke-width="1.613525"/></g><g fill="none" stroke-linejoin="round" stroke-width="2.5" opacity="1" stroke="var(--color)"><path d="m252 360 7-16zM263 347l5 5-5 5 5-5zM248 357l-5-5 5-5-5 5z" stroke-width="1.613525"/></g><g fill="none" stroke-linejoin="round" stroke-width="1.7" opacity="1" stroke="var(--color)"><path d="m294 309 12-30zM314 285l9 9-10 9 10-9zM286 303l-9-9 10-9-10 9z" stroke-width="2.015877"/></g><g opacity="1"><path fill="none" stroke="var(--color)" stroke-linejoin="round" stroke-width="2.5" d="M435 175h9v14h-9zM448 165h10v24h-10zM461 155h10v34h-10zM475 162h10v27h-10z"/><path d="M422 145c-2 0-4 2-4 4v50h83v-50c0-2-2-4-4-4zm0 2h75l2 2v48h-79v-48l2-2z" color="#000" fill="var(--color)" style="-inkscape-stroke:none"/><path d="M418 140c-3 0-5 2-5 5v58h93v-58c0-3-3-5-5-5zm0 3h83l2 2v55h-87v-55l2-2z" color="#000" fill="var(--color)"/><path d="M408 201v7c0 3 3 6 7 6h89c4 0 7-3 7-6v-7zm3 2h98v5c0 2-2 4-5 4h-89c-2 0-4-2-4-4v-5z" color="#000" fill="var(--color)" style="-inkscape-stroke:none"/><path fill="none" stroke="var(--color)" stroke-linecap="round" stroke-linejoin="round" stroke-width="2.6" style="paint-order:normal" d="M453 207h13v1h-13z"/></g><g transform="translate(235 94) scale(.27241)" fill="none" opacity="1" stroke="var(--color)" stroke-linejoin="round"><path d="m294 210-1-1-1-8c-2 0-4-1-5-3l-8 3h-1l-6-10v-2l6-5v-6l-6-5v-1l6-11h1l8 3 5-3 1-8 1-1h12l1 1 1 8 5 3 8-3h1l6 11v1l-6 5v6l6 5v2l-6 10h-1l-8-3c-1 2-3 3-5 3l-1 8-1 1h-12" stroke-width="4.8"/><circle cx="300.6" cy="181.8" r="11.8" stroke-linecap="round" stroke-width="4.1" style="paint-order:normal"/></g><g transform="translate(197 95) scale(.27241)" fill="none" opacity="1" stroke="var(--color)" stroke-linejoin="round"><path d="m294 210-1-1-1-8c-2 0-4-1-5-3l-8 3h-1l-6-10v-2l6-5v-6l-6-5v-1l6-11h1l8 3 5-3 1-8 1-1h12l1 1 1 8 5 3 8-3h1l6 11v1l-6 5v6l6 5v2l-6 10h-1l-8-3c-1 2-3 3-5 3l-1 8-1 1h-12" stroke-width="4.8"/><circle cx="300.6" cy="181.8" r="11.8" stroke-linecap="round" stroke-width="4.1" style="paint-order:normal"/></g><g transform="translate(188 61) scale(.27241)" fill="none" opacity="1" stroke="var(--color)" stroke-linejoin="round"><path d="m294 210-1-1-1-8c-2 0-4-1-5-3l-8 3h-1l-6-10v-2l6-5v-6l-6-5v-1l6-11h1l8 3 5-3 1-8 1-1h12l1 1 1 8 5 3 8-3h1l6 11v1l-6 5v6l6 5v2l-6 10h-1l-8-3c-1 2-3 3-5 3l-1 8-1 1h-12" stroke-width="4.8"/><circle cx="300.6" cy="181.8" r="11.8" stroke-linecap="round" stroke-width="4.1" style="paint-order:normal"/></g><g transform="translate(173 35) scale(.2367)" fill="none" opacity="1" stroke="var(--color)" stroke-linejoin="round"><path d="m294 210-1-1-1-8c-2 0-4-1-5-3l-8 3h-1l-6-10v-2l6-5v-6l-6-5v-1l6-11h1l8 3 5-3 1-8 1-1h12l1 1 1 8 5 3 8-3h1l6 11v1l-6 5v6l6 5v2l-6 10h-1l-8-3c-1 2-3 3-5 3l-1 8-1 1h-12" stroke-width="4.8"/><circle cx="300.6" cy="181.8" r="11.8" stroke-linecap="round" stroke-width="4.1" style="paint-order:normal"/></g><g transform="translate(98 47) scale(.2367)" fill="none" opacity="1" stroke="var(--color)" stroke-linejoin="round"><path d="m294 210-1-1-1-8c-2 0-4-1-5-3l-8 3h-1l-6-10v-2l6-5v-6l-6-5v-1l6-11h1l8 3 5-3 1-8 1-1h12l1 1 1 8 5 3 8-3h1l6 11v1l-6 5v6l6 5v2l-6 10h-1l-8-3c-1 2-3 3-5 3l-1 8-1 1h-12" stroke-width="4.8"/><circle cx="300.6" cy="181.8" r="11.8" stroke-linecap="round" stroke-width="4.1" style="paint-order:normal"/></g><g transform="translate(2 129) scale(.26479)" fill="none" opacity="1" stroke="var(--color)" stroke-linejoin="round" stroke-width="5.9"><path d="m294 210-1-1-1-8c-2 0-4-1-5-3l-8 3h-1l-6-10v-2l6-5v-6l-6-5v-1l6-11h1l8 3 5-3 1-8 1-1h12l1 1 1 8 5 3 8-3h1l6 11v1l-6 5v6l6 5v2l-6 10h-1l-8-3c-1 2-3 3-5 3l-1 8-1 1h-12"/><circle cx="300.6" cy="181.8" r="11.8" stroke-linecap="round" style="paint-order:normal"/></g><g transform="translate(6 248) scale(.26479)" fill="none" opacity="1" stroke="var(--color)" stroke-linejoin="round" stroke-width="5.9"><path d="m294 210-1-1-1-8c-2 0-4-1-5-3l-8 3h-1l-6-10v-2l6-5v-6l-6-5v-1l6-11h1l8 3 5-3 1-8 1-1h12l1 1 1 8 5 3 8-3h1l6 11v1l-6 5v6l6 5v2l-6 10h-1l-8-3c-1 2-3 3-5 3l-1 8-1 1h-12"/><circle cx="300.6" cy="181.8" r="11.8" stroke-linecap="round" style="paint-order:normal"/></g><g transform="translate(84 266) scale(.26479)" fill="none" opacity="1" stroke="var(--color)" stroke-linejoin="round" stroke-width="5.9"><path d="m294 210-1-1-1-8c-2 0-4-1-5-3l-8 3h-1l-6-10v-2l6-5v-6l-6-5v-1l6-11h1l8 3 5-3 1-8 1-1h12l1 1 1 8 5 3 8-3h1l6 11v1l-6 5v6l6 5v2l-6 10h-1l-8-3c-1 2-3 3-5 3l-1 8-1 1h-12"/><circle cx="300.6" cy="181.8" r="11.8" stroke-linecap="round" style="paint-order:normal"/></g><g transform="matrix(0 -.26479 .26479 0 7 424)" fill="none" opacity="1" stroke="var(--color)" stroke-linejoin="round" stroke-width="5.9"><path d="m294 210-1-1-1-8c-2 0-4-1-5-3l-8 3h-1l-6-10v-2l6-5v-6l-6-5v-1l6-11h1l8 3 5-3 1-8 1-1h12l1 1 1 8 5 3 8-3h1l6 11v1l-6 5v6l6 5v2l-6 10h-1l-8-3c-1 2-3 3-5 3l-1 8-1 1h-12"/><circle cx="300.6" cy="181.8" r="11.8" stroke-linecap="round" style="paint-order:normal"/></g><g transform="translate(91 468) scale(.26479)" fill="none" opacity="1" stroke="var(--color)" stroke-linejoin="round" stroke-width="5.9"><path d="m294 210-1-1-1-8c-2 0-4-1-5-3l-8 3h-1l-6-10v-2l6-5v-6l-6-5v-1l6-11h1l8 3 5-3 1-8 1-1h12l1 1 1 8 5 3 8-3h1l6 11v1l-6 5v6l6 5v2l-6 10h-1l-8-3c-1 2-3 3-5 3l-1 8-1 1h-12"/><circle cx="300.6" cy="181.8" r="11.8" stroke-linecap="round" style="paint-order:normal"/></g><g transform="translate(283 488) scale(.26479)" fill="none" opacity="1" stroke="var(--color)" stroke-linejoin="round" stroke-width="5.9"><path d="m294 210-1-1-1-8c-2 0-4-1-5-3l-8 3h-1l-6-10v-2l6-5v-6l-6-5v-1l6-11h1l8 3 5-3 1-8 1-1h12l1 1 1 8 5 3 8-3h1l6 11v1l-6 5v6l6 5v2l-6 10h-1l-8-3c-1 2-3 3-5 3l-1 8-1 1h-12"/><circle cx="300.6" cy="181.8" r="11.8" stroke-linecap="round" style="paint-order:normal"/></g><g transform="translate(374 445) scale(.26479)" fill="none" opacity="1" stroke="var(--color)" stroke-linejoin="round" stroke-width="5.9"><path d="m294 210-1-1-1-8c-2 0-4-1-5-3l-8 3h-1l-6-10v-2l6-5v-6l-6-5v-1l6-11h1l8 3 5-3 1-8 1-1h12l1 1 1 8 5 3 8-3h1l6 11v1l-6 5v6l6 5v2l-6 10h-1l-8-3c-1 2-3 3-5 3l-1 8-1 1h-12"/><circle cx="300.6" cy="181.8" r="11.8" stroke-linecap="round" style="paint-order:normal"/></g><g transform="translate(392 432) scale(.26479)" fill="none" opacity="1" stroke="var(--color)" stroke-linejoin="round" stroke-width="5.9"><path d="m294 210-1-1-1-8c-2 0-4-1-5-3l-8 3h-1l-6-10v-2l6-5v-6l-6-5v-1l6-11h1l8 3 5-3 1-8 1-1h12l1 1 1 8 5 3 8-3h1l6 11v1l-6 5v6l6 5v2l-6 10h-1l-8-3c-1 2-3 3-5 3l-1 8-1 1h-12"/><circle cx="300.6" cy="181.8" r="11.8" stroke-linecap="round" style="paint-order:normal"/></g><g transform="translate(142 30) scale(.52116)" fill="none" opacity="1" stroke="var(--color)" stroke-linejoin="round"><path d="m294 210-1-1-1-8c-2 0-4-1-5-3l-8 3h-1l-6-10v-2l6-5v-6l-6-5v-1l6-11h1l8 3 5-3 1-8 1-1h12l1 1 1 8 5 3 8-3h1l6 11v1l-6 5v6l6 5v2l-6 10h-1l-8-3c-1 2-3 3-5 3l-1 8-1 1h-12" stroke-width="4.1"/><circle cx="300.5" cy="180.8" r="10.7" stroke-linecap="round" stroke-width="5.8" style="paint-order:normal"/></g><g transform="translate(-96 214) scale(.52116)" fill="none" opacity="1" stroke="var(--color)" stroke-linejoin="round"><path d="m294 210-1-1-1-8c-2 0-4-1-5-3l-8 3h-1l-6-10v-2l6-5v-6l-6-5v-1l6-11h1l8 3 5-3 1-8 1-1h12l1 1 1 8 5 3 8-3h1l6 11v1l-6 5v6l6 5v2l-6 10h-1l-8-3c-1 2-3 3-5 3l-1 8-1 1h-12" stroke-width="4.1"/><circle cx="300.5" cy="180.8" r="10.7" stroke-linecap="round" stroke-width="5.8" style="paint-order:normal"/></g><g transform="translate(283 103) scale(.23184)" fill="none" opacity="1" stroke="var(--color)" stroke-linejoin="round"><path d="m294 210-1-1-1-8c-2 0-4-1-5-3l-8 3h-1l-6-10v-2l6-5v-6l-6-5v-1l6-11h1l8 3 5-3 1-8 1-1h12l1 1 1 8 5 3 8-3h1l6 11v1l-6 5v6l6 5v2l-6 10h-1l-8-3c-1 2-3 3-5 3l-1 8-1 1h-12" stroke-width="4.8"/><circle cx="300.6" cy="181.8" r="11.8" stroke-linecap="round" stroke-width="4.1" style="paint-order:normal"/></g><g transform="translate(434 131) scale(.27157)" fill="none" opacity="1" stroke="var(--color)" stroke-linejoin="round"><path d="m294 210-1-1-1-8c-2 0-4-1-5-3l-8 3h-1l-6-10v-2l6-5v-6l-6-5v-1l6-11h1l8 3 5-3 1-8 1-1h12l1 1 1 8 5 3 8-3h1l6 11v1l-6 5v6l6 5v2l-6 10h-1l-8-3c-1 2-3 3-5 3l-1 8-1 1h-12" stroke-width="4.8"/><circle cx="300.6" cy="181.8" r="11.8" stroke-linecap="round" stroke-width="4.1" style="paint-order:normal"/></g><g transform="translate(384 272) scale(.23184)" fill="none" opacity="1" stroke="var(--color)" stroke-linejoin="round"><path d="m294 210-1-1-1-8c-2 0-4-1-5-3l-8 3h-1l-6-10v-2l6-5v-6l-6-5v-1l6-11h1l8 3 5-3 1-8 1-1h12l1 1 1 8 5 3 8-3h1l6 11v1l-6 5v6l6 5v2l-6 10h-1l-8-3c-1 2-3 3-5 3l-1 8-1 1h-12" stroke-width="4.8"/><circle cx="300.6" cy="181.8" r="11.8" stroke-linecap="round" stroke-width="4.1" style="paint-order:normal"/></g><g transform="translate(346 261) scale(.25614)" fill="none" opacity="1" stroke="var(--color)" stroke-linejoin="round"><path d="m294 210-1-1-1-8c-2 0-4-1-5-3l-8 3h-1l-6-10v-2l6-5v-6l-6-5v-1l6-11h1l8 3 5-3 1-8 1-1h12l1 1 1 8 5 3 8-3h1l6 11v1l-6 5v6l6 5v2l-6 10h-1l-8-3c-1 2-3 3-5 3l-1 8-1 1h-12" stroke-width="4.8"/><circle cx="300.6" cy="181.8" r="11.8" stroke-linecap="round" stroke-width="4.1" style="paint-order:normal"/></g><g transform="translate(426 387) scale(.26479)" fill="none" opacity="1" stroke="var(--color)" stroke-linejoin="round" stroke-width="5.9"><path d="m294 210-1-1-1-8c-2 0-4-1-5-3l-8 3h-1l-6-10v-2l6-5v-6l-6-5v-1l6-11h1l8 3 5-3 1-8 1-1h12l1 1 1 8 5 3 8-3h1l6 11v1l-6 5v6l6 5v2l-6 10h-1l-8-3c-1 2-3 3-5 3l-1 8-1 1h-12"/><circle cx="300.6" cy="181.8" r="11.8" stroke-linecap="round" style="paint-order:normal"/></g><g transform="translate(461 343) scale(.24552)" fill="none" opacity="1" stroke="var(--color)" stroke-linejoin="round" stroke-width="5.9"><path d="m294 210-1-1-1-8c-2 0-4-1-5-3l-8 3h-1l-6-10v-2l6-5v-6l-6-5v-1l6-11h1l8 3 5-3 1-8 1-1h12l1 1 1 8 5 3 8-3h1l6 11v1l-6 5v6l6 5v2l-6 10h-1l-8-3c-1 2-3 3-5 3l-1 8-1 1h-12"/><circle cx="300.6" cy="181.8" r="11.8" stroke-linecap="round" style="paint-order:normal"/></g><g transform="translate(273 380) scale(.26479)" fill="none" opacity="1" stroke="var(--color)" stroke-linejoin="round" stroke-width="5.9"><path d="m294 210-1-1-1-8c-2 0-4-1-5-3l-8 3h-1l-6-10v-2l6-5v-6l-6-5v-1l6-11h1l8 3 5-3 1-8 1-1h12l1 1 1 8 5 3 8-3h1l6 11v1l-6 5v6l6 5v2l-6 10h-1l-8-3c-1 2-3 3-5 3l-1 8-1 1h-12"/><circle cx="300.6" cy="181.8" r="11.8" stroke-linecap="round" style="paint-order:normal"/></g><g transform="translate(241 382) scale(.26479)" fill="none" opacity="1" stroke="var(--color)" stroke-linejoin="round" stroke-width="5.9"><path d="m294 210-1-1-1-8c-2 0-4-1-5-3l-8 3h-1l-6-10v-2l6-5v-6l-6-5v-1l6-11h1l8 3 5-3 1-8 1-1h12l1 1 1 8 5 3 8-3h1l6 11v1l-6 5v6l6 5v2l-6 10h-1l-8-3c-1 2-3 3-5 3l-1 8-1 1h-12"/><circle cx="300.6" cy="181.8" r="11.8" stroke-linecap="round" style="paint-order:normal"/></g><path d="M103 330h-1l-1-5-2-1-4 2-1-1-3-5v-1l3-3v-3l-3-2v-1l3-5 1-1 4 2 2-2 1-4h8v4l3 2 3-2 1 1 3 5v1l-3 2v3l3 3v1l-3 5-1 1-3-2-3 1v5h-7" fill="none" opacity="1" stroke="var(--color)" stroke-linejoin="round" stroke-width="2.1"/><circle cx="106" cy="314.8" r="5.6" fill="none" opacity="1" stroke="var(--color)" stroke-linecap="round" stroke-linejoin="round" stroke-width="3" style="paint-order:normal"/><path d="m228 345 1 2-2 2-1 1h-1l-3-1-3-1h-1l-2 1-1 2 1 2 2 2 3 1 5-2 6-2h3l2 1 2 3-1 1-1 1-2 1-2-1h-4l-2 2 1 2" fill="none" opacity="1" stroke="var(--color)" stroke-linecap="round" stroke-width="1.5"/><path d="m297 358 2 3-2 2-3 1-2-1h-3l-1 1-1 1v2l2 2 3 1 5-1 5-1 3 1 2 1 1 2-1 2-2 1h-7l-1 2 1 3" fill="none" opacity="1" stroke="var(--color)" stroke-linecap="round" stroke-linejoin="round" stroke-width="1.6"/><g transform="translate(95 441) scale(.52116)" fill="none" opacity="1" stroke="var(--color)" stroke-linejoin="round"><path d="m294 210-1-1-1-8c-2 0-4-1-5-3l-8 3h-1l-6-10v-2l6-5v-6l-6-5v-1l6-11h1l8 3 5-3 1-8 1-1h12l1 1 1 8 5 3 8-3h1l6 11v1l-6 5v6l6 5v2l-6 10h-1l-8-3c-1 2-3 3-5 3l-1 8-1 1h-12" stroke-width="4.1"/><circle cx="300.5" cy="180.8" r="10.7" stroke-linecap="round" stroke-width="5.8" style="paint-order:normal"/></g><g transform="translate(107 330) scale(.52116)" fill="none" opacity="1" stroke="var(--color)" stroke-linejoin="round"><path d="m294 210-1-1-1-8c-2 0-4-1-5-3l-8 3h-1l-6-10v-2l6-5v-6l-6-5v-1l6-11h1l8 3 5-3 1-8 1-1h12l1 1 1 8 5 3 8-3h1l6 11v1l-6 5v6l6 5v2l-6 10h-1l-8-3c-1 2-3 3-5 3l-1 8-1 1h-12" stroke-width="4.1"/><circle cx="300.5" cy="180.8" r="10.7" stroke-linecap="round" stroke-width="5.8" style="paint-order:normal"/></g><g transform="translate(273 408) scale(.52116)" fill="none" opacity="1" stroke="var(--color)" stroke-linejoin="round"><path d="m294 210-1-1-1-8c-2 0-4-1-5-3l-8 3h-1l-6-10v-2l6-5v-6l-6-5v-1l6-11h1l8 3 5-3 1-8 1-1h12l1 1 1 8 5 3 8-3h1l6 11v1l-6 5v6l6 5v2l-6 10h-1l-8-3c-1 2-3 3-5 3l-1 8-1 1h-12" stroke-width="3.8"/><circle cx="300.5" cy="180.8" r="10.7" stroke-linecap="round" stroke-width="4.8" style="paint-order:normal"/></g><g transform="translate(358 313) scale(.52116)" fill="none" opacity="1" stroke="var(--color)" stroke-linejoin="round"><path d="m294 210-1-1-1-8c-2 0-4-1-5-3l-8 3h-1l-6-10v-2l6-5v-6l-6-5v-1l6-11h1l8 3 5-3 1-8 1-1h12l1 1 1 8 5 3 8-3h1l6 11v1l-6 5v6l6 5v2l-6 10h-1l-8-3c-1 2-3 3-5 3l-1 8-1 1h-12" stroke-width="4.1"/><circle cx="300.5" cy="180.8" r="10.7" stroke-linecap="round" stroke-width="5.8" style="paint-order:normal"/></g><g fill="none" stroke="var(--color)" stroke-linejoin="round" stroke-width="2.3"><path d="m288 208-1-1v-8l-4-4-8 1-1-1-4-11 1-2 7-3 1-3 1-3-5-6v-2l8-8h2l6 4 5-2 3-7 2-1 11 3 1 1v8l4 4 8-1 1 1 4 11-1 2-7 3-1 3v3l4 6v2l-8 8h-1l-7-4-5 2-3 7-2 1-11-3"/><circle cx="299.8" cy="181" r="16.9" stroke-linecap="round" style="paint-order:normal"/></g><text x="288.1" y="184.7" fill="var(--color)" font-family="sans-serif" font-size="10.5" font-weight="bold" letter-spacing="0" stroke-width="2" style="line-height:0" xml:space="preserve">
            <tspan x="286.1" y="184.7">JAVA</tspan>
        </text><text x="184.4" y="95.3" fill="var(--color)" font-family="sans-serif" font-size="15.3" font-weight="bold" letter-spacing="0" stroke-width="4.5" style="line-height:0" xml:space="preserve">
            <tspan x="184.4" y="95.3" font-weight="normal">CODE</tspan>
        </text><text x="192.8" y="290.2" fill="var(--color)" font-family="sans-serif" font-size="15.5" font-weight="bold" letter-spacing="0" opacity="1" stroke-width="1.9" style="line-height:0" xml:space="preserve">
            <tspan x="192.8" y="290.2">JAVA</tspan>
        </text><rect x="176.8" y="260.8" width="61.3" height="78.3" ry="0" fill="none" opacity="1" stroke="var(--color)" stroke-linecap="round" stroke-linejoin="round" stroke-width="2.3" style="paint-order:normal"/><g transform="rotate(-37 482 494)" fill="none" opacity="1" stroke="var(--color)" stroke-linejoin="round" stroke-width="2"><path d="m294 210-1-1-1-8c-2 0-4-1-5-3l-8 3h-1l-6-10v-2l6-5v-6l-6-5v-1l6-11h1l8 3 5-3 1-8 1-1h12l1 1 1 8 5 3 8-3h1l6 11v1l-6 5v6l6 5v2l-6 10h-1l-8-3c-1 2-3 3-5 3l-1 8-1 1h-12"/><circle cx="299.8" cy="181" r="16.9" stroke-linecap="round" style="paint-order:normal"/></g><text x="135.9" y="359.4" fill="var(--color)" font-family="sans-serif" font-size="15.7" font-weight="bold" letter-spacing="-.4" opacity="1" stroke-width="2" style="line-height:0" xml:space="preserve">
            <tspan x="135.9" y="359.4">C#</tspan>
        </text><g opacity="1"><g fill="none" opacity="1" stroke="var(--color)" stroke-linejoin="round" stroke-width="2" transform="translate(46 201)"><path d="m294 210-1-1-1-8c-2 0-4-1-5-3l-8 3h-1l-6-10v-2l6-5v-6l-6-5v-1l6-11h1l8 3 5-3 1-8 1-1h12l1 1 1 8 5 3 8-3h1l6 11v1l-6 5v6l6 5v2l-6 10h-1l-8-3c-1 2-3 3-5 3l-1 8-1 1h-12"/><circle cx="299.8" cy="181.3" r="16.9" stroke-linecap="round" style="paint-order:normal"/></g><text x="285.1" y="184.6" fill="var(--color)" font-family="sans-serif" font-size="9.8" font-weight="bold" letter-spacing="-.5" opacity="1" stroke-width="1.2" style="line-height:0" xml:space="preserve" transform="translate(46 201)">
                <tspan x="287.1" y="184.6">HTML</tspan>
            </text></g><g opacity="1"><g fill="none" opacity="1" stroke="var(--color)" stroke-linejoin="round" stroke-width="2" transform="translate(-89 326)"><path d="m294 210-1-1-1-8c-2 0-4-1-5-3l-8 3h-1l-6-10v-2l6-5v-6l-6-5v-1l6-11h1l8 3 5-3 1-8 1-1h12l1 1 1 8 5 3 8-3h1l6 11v1l-6 5v6l6 5v2l-6 10h-1l-8-3c-1 2-3 3-5 3l-1 8-1 1h-12"/><circle cx="299.8" cy="181" r="16.9" stroke-linecap="round" style="paint-order:normal"/></g><text x="286.7" y="185" fill="var(--color)" font-family="sans-serif" font-size="11.6" font-weight="bold" letter-spacing="-.2" opacity="1" stroke-width="1.5" style="line-height:0" xml:space="preserve" transform="translate(-89 326)">
                <tspan x="287.7" y="185">CSS</tspan>
            </text></g><g opacity="1"><g fill="none" opacity="1" stroke="var(--color)" stroke-linejoin="round" stroke-width="2.3" transform="translate(-97 8)"><path d="m294 210-1-1-1-8c-2 0-4-1-5-3l-8 3h-1l-6-10v-2l6-5v-6l-6-5v-1l6-11h1l8 3 5-3 1-8 1-1h12l1 1 1 8 5 3 8-3h1l6 11v1l-6 5v6l6 5v2l-6 10h-1l-8-3c-1 2-3 3-5 3l-1 8-1 1h-12"/><circle cx="299.8" cy="181" r="16.9" stroke-linecap="round" style="paint-order:normal"/></g><text x="287.3" y="185.3" fill="var(--color)" font-family="sans-serif" font-size="11.7" font-weight="bold" letter-spacing="0" opacity="1" stroke-width="1.5" style="line-height:0" xml:space="preserve" transform="translate(-97 8)">
                <tspan x="288.3" y="185.3">PHP</tspan>
            </text></g><path fill="none" opacity="1" stroke="var(--color)" stroke-linecap="round" stroke-linejoin="round" stroke-width="1.6" d="M58 215h11v11H58zM119 215h11v11h-11zM58 276h11v11H58zM119 276h11v11h-11z"/><path d="M124 226v50M63 226v50M69 220h50M69 282h50" fill="none" opacity="1" stroke="var(--color)" stroke-dasharray="6, 3" stroke-linejoin="round" stroke-width="3" style="paint-order:normal"/><path fill="none" opacity="1" stroke="var(--color)" stroke-linejoin="round" stroke-width="2" style="paint-order:normal" d="M70 234h47v34H70z"/><circle cx="80.4" cy="241.7" r="3.8" fill="none" opacity="1" stroke="var(--color)" stroke-linejoin="round" stroke-width="2" style="paint-order:normal"/><path d="m71 260 11-2 14 3 8 1 8-3h5" fill="none" opacity="1" stroke="var(--color)" stroke-width="1.5"/><path d="m90 260 11-19 11 18M82 258l8-13 4 8" fill="none" opacity="1" stroke="var(--color)" stroke-linejoin="round" stroke-width="1.5"/><path d="m87 250 1 1h4v-1M97 247l1 1h6v-1" fill="none" opacity="1" stroke="var(--color)" stroke-width="1.5"/><g fill="none" opacity="1" stroke="var(--color)"><path opacity="1" stroke-linejoin="round" stroke-width="1.5" style="paint-order:normal" d="M141 216h36v36h-36z"/><path opacity="1" stroke-linejoin="round" stroke-width="1.5" style="paint-order:normal" d="M146 221h26v26h-26z"/><path d="M152 231v-5h4M162 226h5v5M156 241h-4v-4M167 237v4h-5" stroke-linecap="round" stroke-linejoin="round" stroke-width="1.5"/><g stroke-linecap="round" stroke-width="2.1"><path d="M145 215v-6M149 215v-6M153 215v-6M157 215v-6M161 215v-6M165 215v-6M169 215v-6M173 215v-6"/></g><g stroke-linecap="round" stroke-width="2.1"><path d="M145 258v-5M149 258v-5M153 258v-5M157 258v-5M161 258v-5M165 258v-5M169 258v-5M173 258v-5"/></g><g stroke-linecap="round" stroke-width="2.1"><path d="M184 248h-6M184 244h-6M184 240h-6M184 236h-6M184 232h-6M184 228h-6M184 224h-6M184 220h-6"/></g><g stroke-linecap="round" stroke-width="2.1"><path d="M140 248h-5M140 244h-5M140 240h-5M140 236h-5M140 232h-5M140 228h-5M140 224h-5M140 220h-5"/></g></g><g fill="none" opacity="1" stroke="var(--color)"><path opacity="1" stroke-linejoin="round" stroke-width="1.5" style="paint-order:normal" d="M141 216h36v36h-36z" transform="translate(168 -162)"/><path opacity="1" stroke-linejoin="round" stroke-width="1.5" style="paint-order:normal" d="M146 221h26v26h-26z" transform="translate(168 -162)"/><path d="M320 69v-5h5M331 64h4v5M325 79h-5v-4M335 75v4h-4" stroke-linecap="round" stroke-linejoin="round" stroke-width="1.5"/><g stroke-linecap="round" stroke-width="2.1"><path d="M314 53v-6M318 53v-6M322 53v-6M326 53v-6M330 53v-6M334 53v-6M338 53v-6M342 53v-6"/></g><g stroke-linecap="round" stroke-width="2.1"><path d="M314 97v-6M318 97v-6M322 97v-6M326 97v-6M330 97v-6M334 97v-6M338 97v-6M342 97v-6"/></g><g stroke-linecap="round" stroke-width="2.1"><path d="M352 86h-6M352 82h-6M352 78h-6M352 74h-6M352 70h-6M352 66h-6M352 62h-6M352 58h-6"/></g><g stroke-linecap="round" stroke-width="2.1"><path d="M309 86h-6M309 82h-6M309 78h-6M309 74h-6M309 70h-6M309 66h-6M309 62h-6M309 58h-6"/></g></g><g fill="none" opacity="1" stroke="var(--color)"><path opacity="1" stroke-linejoin="round" stroke-width="1.5" style="paint-order:normal" d="M141 216h36v36h-36z" transform="translate(226 -65)"/><path opacity="1" stroke-linejoin="round" stroke-width="1.5" style="paint-order:normal" d="M146 221h26v26h-26z" transform="translate(226 -65)"/><path d="M378 166v-4h4M388 162h5v4M382 177h-4v-5M393 172v5h-5" stroke-linecap="round" stroke-linejoin="round" stroke-width="1.5"/><g stroke-linecap="round" stroke-width="2.1"><path d="M371 151v-6M375 151v-6M379 151v-6M383 151v-6M387 151v-6M391 151v-6M395 151v-6M399 151v-6"/></g><g stroke-linecap="round" stroke-width="2.1"><path d="M371 194v-6M375 194v-6M379 194v-6M383 194v-6M387 194v-6M391 194v-6M395 194v-6M399 194v-6"/></g><g stroke-linecap="round" stroke-width="2.1"><path d="M410 183h-6M410 179h-6M410 175h-6M410 171h-6M410 167h-6M410 163h-6M410 159h-6M410 155h-6"/></g><g stroke-linecap="round" stroke-width="2.1"><path d="M366 183h-5M366 179h-5M366 175h-5M366 171h-5M366 167h-5M366 163h-5M366 159h-5M366 155h-5"/></g></g><g fill="none" opacity="1" stroke="var(--color)"><path opacity="1" stroke-linejoin="round" stroke-width="1.5" style="paint-order:normal" d="M141 216h36v36h-36z" transform="translate(136 227)"/><path opacity="1" stroke-linejoin="round" stroke-width="1.5" style="paint-order:normal" d="M146 221h26v26h-26z" transform="translate(136 227)"/><path d="M288 458v-4h5M299 454h4v4M293 469h-5v-5M303 464v5h-4" stroke-linecap="round" stroke-linejoin="round" stroke-width="1.5"/><g stroke-linecap="round" stroke-width="2.1"><path d="M281 443v-6M285 443v-6M289 443v-6M293 443v-6M297 443v-6M301 443v-6M305 443v-6M309 443v-6"/></g><g stroke-linecap="round" stroke-width="2.1"><path d="M281 486v-6M285 486v-6M289 486v-6M293 486v-6M297 486v-6M301 486v-6M305 486v-6M309 486v-6"/></g><g stroke-linecap="round" stroke-width="2.1"><path d="M320 475h-6M320 471h-6M320 467h-6M320 463h-6M320 459h-6M320 455h-6M320 451h-6M320 447h-6"/></g><g stroke-linecap="round" stroke-width="2.1"><path d="M277 475h-6M277 471h-6M277 467h-6M277 463h-6M277 459h-6M277 455h-6M277 451h-6M277 447h-6"/></g></g><g fill="none" opacity="1" stroke="var(--color)"><path stroke-width="2.3" d="M361 81h73v57h-73zM361 90h73z" transform="matrix(1.0214 0 0 1.0087 102 143)"/><path transform="matrix(1.0214 0 0 1.0087 102 143)" d="m397 131-19-20 8-11h21l9 11z" stroke-width="1.4"/><g stroke-width="1.4"><path d="M488 255h39M497 243l10 31M518 243l-11 31"/><path d="m501 255 7-12 6 12z" stroke-linejoin="round"/></g></g><g fill="none" opacity="1" stroke="var(--color)"><path opacity="1" stroke-linecap="round" stroke-linejoin="round" stroke-width="1.6" style="paint-order:normal" d="M331 187h27v14h-27zM313 212h27v13h-27zM350 212h27v13h-27zM306 237h14v14h-14zM327 237h14v14h-14zM348 237h14v14h-14zM369 237h14v14h-14z"/><path d="M326 206h37" stroke-linecap="round" stroke-linejoin="round" stroke-width="1.4"/><path d="M345 201v5M326 206v6" stroke-width="1.4"/><path d="M363 206v6" stroke-linecap="round" stroke-linejoin="round" stroke-width="1.4"/><path d="M313 231h63" stroke-linecap="round" stroke-width="1.4"/><path d="M327 225v6M363 225v6" stroke-width="1.4"/><path d="M376 231v6M313 231v6" stroke-linecap="round" stroke-width="1.4"/><path d="M334 237v-6M355 237v-6" stroke-width="1.4"/></g><circle cx="151.7" cy="423.4" r="14.8" fill="none" opacity="1" stroke="var(--color)" stroke-linecap="round" stroke-linejoin="round" stroke-width="1.9" style="paint-order:normal"/><circle cx="151.6" cy="423.4" r="10.7" fill="none" opacity="1" stroke="var(--color)" stroke-linecap="round" stroke-linejoin="round" stroke-width="1.9" style="paint-order:normal"/><path d="m162 434 6 5" fill="none" opacity="1" stroke="var(--color)" stroke-width="2.8"/><path d="M165 441a1 1 1 0 0 0 1l15 15a1 1 1 0 0 1 0l5-5a1 1 1 0 0 0-1l-15-15a1 1 1 0 0-1 0zm2 1 3-4 14 14-4 3z" color="#000" fill="var(--color)" opacity="1" style="-inkscape-stroke:none"/><path d="M63 345h4M67 336v26" fill="none" opacity="1" stroke="var(--color)" stroke-width="1.9"/><path fill="none" opacity="1" stroke="var(--color)" stroke-linecap="round" stroke-linejoin="round" stroke-width="1.9" style="paint-order:normal" d="M56 361h61v20H56z"/><circle cx="67" cy="331.9" r="4" fill="none" opacity="1" stroke="var(--color)" stroke-linecap="round" stroke-linejoin="round" stroke-width="1.9" style="paint-order:normal"/><path fill="none" opacity="1" stroke="var(--color)" stroke-linecap="round" stroke-linejoin="round" stroke-width="1.9" style="paint-order:normal" d="M62 368h5v5h-5zM73 368h5v5h-5zM84 368h5v5h-5zM95 368h5v5h-5zM106 368h5v5h-5z"/><path d="M73 325c1 2 3 4 3 7s-2 5-3 7M78 321c2 4 4 7 4 11s-2 7-4 11M82 316c3 6 5 10 5 16s-2 10-5 15" fill="none" opacity="1" stroke="var(--color)" stroke-linecap="round" stroke-width="1.5"/><g fill="none" opacity="1" stroke="var(--color)"><circle cx="430.4" cy="350" r="30" opacity="1" stroke-linecap="round" stroke-linejoin="round" stroke-width="1.5" style="paint-order:normal"/><path d="M430 320v60M400 350h60M430 320c-7 0-15 15-15 30s8 30 15 30c8 0 16-15 16-30s-8-30-16-30z" stroke-width="1.6"/><path d="M408 330c7 3 14 6 22 6 9 0 15-3 23-6M408 370c7-3 14-6 22-6 9 0 15 3 23 6" stroke-width="1.6"/></g><g fill="none" opacity="1" stroke="var(--color)" stroke-width="1.5"><path d="m331 529 8 9 33-33-8-8z" stroke-linecap="round" stroke-linejoin="round"/><path d="m331 529-5 14 13-5z" stroke-linejoin="round"/><path d="m328 537 3 1 1 3M360 501l8 8M337 535l28-28M334 532l28-28"/><path d="m331 529 8 9 33-33-8-8z" stroke-linecap="round" stroke-linejoin="round" transform="matrix(-1.3251 0 0 -1.3522 733 782)"/><path d="m331 529-5 14 13-5z" stroke-linejoin="round" transform="matrix(-1.3251 0 0 -1.3522 733 782)"/><path d="m328 537 3 1 1 3M360 501l8 8M337 535l28-28M334 532l28-28" transform="matrix(-1.3251 0 0 -1.3522 733 782)"/></g><g opacity="1" stroke="var(--color)"><path d="m395 498 3-4 3-1" fill="none" stroke-linecap="round" stroke-linejoin="round"/><path d="m389 498-1-4c-1-2-2-1-4-1" fill="none" stroke-linecap="round"/><rect x="381.4" y="498.2" width="22" height="35.5" ry="11.4" fill="none" opacity="1" stroke-linecap="round" stroke-linejoin="round" stroke-width="1.6" style="paint-order:normal"/><path d="M381 510h22" fill="none" stroke-width="1.6"/><rect x="388.8" y="503.5" width="1.6" height="2.5" ry=".8" opacity="1" stroke-linecap="round" stroke-linejoin="round" stroke-width=".9" style="paint-order:normal"/><rect x="394.8" y="503.5" width="1.6" height="2.5" ry=".8" opacity="1" stroke-linecap="round" stroke-linejoin="round" stroke-width=".9" style="paint-order:normal"/><path d="M381 514h-6v-8M404 514h6v-8M404 524h6v8M381 524h-6v8M381 519h-6M410 519h-6" fill="none" stroke-linecap="round" stroke-width="1.6"/></g><g fill="none" opacity="1" stroke="var(--color)"><rect x="465.8" y="290.4" width="87" height="83.4" ry="5.2" opacity="1" stroke-linecap="round" stroke-linejoin="round" stroke-width="1.6" style="paint-order:normal"/><path d="M501 374v12M517 374v12M494 385h29" stroke-width="1.6"/><g stroke-linecap="round" stroke-width="1.6"><rect x="469.7" y="294.7" width="78.1" height="22.5" rx="0" ry="0" stroke-linejoin="round" style="paint-order:normal"/><circle cx="535" cy="306.4" r="4.5" stroke-linejoin="round" style="paint-order:normal"/><path d="M476 304h11M476 309h11"/></g><g transform="translate(0 26)" stroke-linecap="round" stroke-width="1.6"><rect x="469.7" y="294.7" width="78.1" height="22.5" rx="0" ry="0" stroke-linejoin="round" style="paint-order:normal"/><circle cx="535" cy="306.4" r="4.5" stroke-linejoin="round" style="paint-order:normal"/><path d="M476 304h11M476 309h11"/></g><g transform="translate(0 52)" stroke-linecap="round" stroke-width="1.6"><rect x="469.7" y="294.7" width="78.1" height="22.5" rx="0" ry="0" stroke-linejoin="round" style="paint-order:normal"/><circle cx="535" cy="306.4" r="4.5" stroke-linejoin="round" style="paint-order:normal"/><path d="M476 304h11M476 309h11"/></g></g><path d="m467 107-2-2-1-1h-2l-8-4-2-1-1 1c-4 3-8 4-11 5-2 0-2 1-2 2v4a794 794 0 0 0 0 12c0 3 2 6 4 8 2 3 5 5 9 7h2l1-1 3-1 7-7a15 15 0 0 0 3-10v-12zm-2 7v7l-2 7-7 6-3 2h-1l-9-6a15 15 0 0 1-4-10v-13h1c4-1 7-2 11-6h2l8 5h3v1h1v5z" fill="var(--color)" opacity="1"/><path d="m463 110-1-2h-3l-6-3-1-1-1 1c-3 2-5 3-8 3-1 0-2 1-2 3v2a600 600 0 0 0 1 9l2 6 8 5v1l1-1h1l2-1 5-5a12 12 0 0 0 2-8v-9zm-1 6v5l-2 5-5 5-2 1h-1l-7-5a11 11 0 0 1-2-7l-1-7v-2l1-1c3 0 6-2 9-4s0 0 1 0l6 3 2 1h1v4z" fill="var(--color)" opacity="1"/><path d="M188 261v78" fill="none" opacity="1" stroke="var(--color)" stroke-width="2"/><path d="M197 339v9l5-5 4 5v-9zM261 77l-20-19 10-10 19 19M282 79l19 19-10 9-19-18" fill="none" opacity="1" stroke="var(--color)" stroke-linejoin="round" stroke-width="1.6"/><path d="m257 59 3-3M265 68l3-3M283 85l3-3M259 65l4-4M286 92l4-5M291 94l3-3" fill="none" opacity="1" stroke="var(--color)" stroke-linecap="round" stroke-width="1.6"/><circle cx="249.3" cy="58.9" r="2.3" fill="none" opacity="1" stroke="var(--color)" stroke-linecap="round" stroke-linejoin="round" stroke-width="1.6" style="paint-order:normal"/><path d="M231 220c3-12 12-22 25-22 10 0 17 6 21 14 11 1 21 10 21 21s-10 21-21 21h-46c-10 0-17-8-17-18 0-9 8-15 17-16z" fill="none" opacity="1" stroke="var(--color)" stroke-linejoin="round" stroke-width="2"/><g fill="var(--color)" opacity="1"><path d="M360 308h33v5h6c3 0 5 2 5 4v4c0 6-5 10-10 10h-1c-1 3-3 6-6 8v5l-1 1h-20l-1-1v-5c-4-2-6-7-6-11v-19l1-1zm34 21c4 0 8-3 8-8v-4c0-1-1-2-3-2h-6v14zm-17-11a1 1 0 1 0-1 0 1 1 0 0 0 1 0zm-16 10c0 4 2 8 6 10v5h4v-10l-2-3-1 1a3 3 0 1 1 2-2l3 3v11h2v-23a3 3 0 1 1 2 0v23h2v-14l1-1 2-3a3 3 0 1 1 2 2l-3 2v14h4v-4l1-1c3-2 6-6 6-10v-18h-31zm7 0a1 1 0 1 0-1 0 1 1 0 0 0 1 0zm17-3a1 1 0 1 0 0-1 1 1 0 0 0 0 1zM367 301v1l1 1a1 1 0 1 1-2 1v-1l-1-2 1-3v-2a1 1 0 0 1 1-2v1l1 2-1 2v2zM377 301v1l1 1a1 1 0 1 1-2 1l-1-1v-5l1-1-1-1a1 1 0 0 1 2-2v1l1 2-1 2v2zM386 301l1 1v1a1 1 0 0 1-2 1v-1l-1-2 1-3 1-1-1-1a1 1 0 0 1 2-2v1l1 2-1 2-1 2z"/></g><path d="M399 272v30m6-34c-2 0-5 2-6 4-3 1-6 2-8 5a15 15 0 0 0-1 20l9 5a6 6 0 0 0 13-3v-24c0-4-3-7-7-7zM449 272v30m-6-34c3 0 5 2 6 4 3 1 7 2 9 5a15 15 0 0 1 0 20c-2 2-5 4-9 5a6 6 0 0 1-12-3v-24c0-4 3-7 6-7z" fill="none" opacity="1" stroke="var(--color)" stroke-linecap="round" stroke-linejoin="round" stroke-width="2"/><path d="M392 276c-3-9-2-19 2-27s12-14 21-17 19-1 27 4 13 12 16 21c1 6 1 13-1 19" fill="none" opacity="1" stroke="var(--color)" stroke-width="3"/><circle cx="152.2" cy="116.7" r="19.4" fill="none" stroke="var(--color)" stroke-linecap="round" stroke-linejoin="round" stroke-width="2.3" style="paint-order:normal"/><circle cx="152.1" cy="116.7" r="14.1" fill="none" stroke="var(--color)" stroke-linecap="round" stroke-linejoin="round" stroke-width="2.1" style="paint-order:normal"/><path d="m166 130 8 8" fill="none" stroke="var(--color)" stroke-width="3.7"/><path d="M170 140a1 1 1 0 0 0 2l19 19a1 1 1 0 0 2 0l6-6a1 1 1 0 0 0-2l-19-19a1 1 1 0 0-2 0zm2 1 5-5 18 18-5 5z" color="#000" fill="var(--color)" style="-inkscape-stroke:none"/><text x="152.5" y="112.2" fill="var(--color)" font-family="Calamitech" font-size="7.3" font-weight="bold" letter-spacing="1.5" opacity="1" stroke-width="1.4" text-anchor="middle" style="line-height:.95" xml:space="preserve">
            <tspan x="151.5" y="112.2">010</tspan>
            <tspan x="151.5" y="119.1">1010</tspan>
            <tspan x="152.3" y="126">100</tspan>
        </text><rect x="253.5" y="267" width="92.8" height="54.5" ry="1.5" fill="none" opacity="1" stroke="var(--color)" stroke-linecap="round" stroke-linejoin="round" stroke-width="2" style="paint-order:normal"/><rect x="246.5" y="260.1" width="106.3" height="79.2" ry="5.3" fill="none" opacity="1" stroke="var(--color)" stroke-linecap="round" stroke-linejoin="round" stroke-width="2" style="paint-order:normal"/><path d="M247 327h106" fill="none" opacity="1" stroke="var(--color)" stroke-width="2"/><path d="M294 334h11" fill="none" opacity="1" stroke="var(--color)" stroke-linecap="round" stroke-width="2"/><path d="M281 352h39" fill="none" opacity="1" stroke="var(--color)" stroke-linecap="round" stroke-width="1.5"/><path d="m291 339-3 13M309 339l3 13" fill="none" opacity="1" stroke="var(--color)" stroke-width="1.5"/><rect x="177.5" y="362.6" width="98.6" height="41.7" ry="1.5" fill="none" opacity="1" stroke="var(--color)" stroke-linejoin="round" stroke-width="2" style="paint-order:normal"/><rect x="183.5" y="367.5" width="7.8" height="7.8" ry=".6" fill="none" opacity="1" stroke="var(--color)" stroke-linejoin="round" stroke-width="1.5" style="paint-order:normal"/><rect x="196.5" y="367.5" width="7.8" height="7.8" ry=".6" fill="none" opacity="1" stroke="var(--color)" stroke-linejoin="round" stroke-width="1.5" style="paint-order:normal"/><rect x="209.5" y="367.5" width="7.8" height="7.8" ry=".6" fill="none" opacity="1" stroke="var(--color)" stroke-linejoin="round" stroke-width="1.5" style="paint-order:normal"/><rect x="222.5" y="367.5" width="7.8" height="7.8" ry=".6" fill="none" opacity="1" stroke="var(--color)" stroke-linejoin="round" stroke-width="1.5" style="paint-order:normal"/><rect x="183.5" y="379.5" width="7.8" height="7.8" ry=".6" fill="none" opacity="1" stroke="var(--color)" stroke-linejoin="round" stroke-width="1.5" style="paint-order:normal"/><rect x="196.5" y="379.5" width="7.8" height="7.8" ry=".6" fill="none" opacity="1" stroke="var(--color)" stroke-linejoin="round" stroke-width="1.5" style="paint-order:normal"/><rect x="209.5" y="379.5" width="7.8" height="7.8" ry=".6" fill="none" opacity="1" stroke="var(--color)" stroke-linejoin="round" stroke-width="1.5" style="paint-order:normal"/><rect x="222.5" y="379.5" width="7.8" height="7.8" ry=".6" fill="none" opacity="1" stroke="var(--color)" stroke-linejoin="round" stroke-width="1.5" style="paint-order:normal"/><rect x="183.5" y="391.5" width="7.8" height="7.8" ry=".6" fill="none" opacity="1" stroke="var(--color)" stroke-linejoin="round" stroke-width="1.5" style="paint-order:normal"/><rect x="196.5" y="391.5" width="7.8" height="7.8" ry=".6" fill="none" opacity="1" stroke="var(--color)" stroke-linejoin="round" stroke-width="1.5" style="paint-order:normal"/><rect x="209.6" y="391.6" width="20.6" height="7.6" ry=".6" fill="none" opacity="1" stroke="var(--color)" stroke-linejoin="round" stroke-width="1.6" style="paint-order:normal"/><rect x="235.5" y="367.5" width="7.8" height="7.8" ry=".6" fill="none" opacity="1" stroke="var(--color)" stroke-linejoin="round" stroke-width="1.5" style="paint-order:normal"/><rect x="248.5" y="367.5" width="7.8" height="7.8" ry=".6" fill="none" opacity="1" stroke="var(--color)" stroke-linejoin="round" stroke-width="1.5" style="paint-order:normal"/><rect x="235.5" y="379.5" width="7.8" height="7.8" ry=".6" fill="none" opacity="1" stroke="var(--color)" stroke-linejoin="round" stroke-width="1.5" style="paint-order:normal"/><rect x="248.5" y="379.5" width="7.8" height="7.8" ry=".6" fill="none" opacity="1" stroke="var(--color)" stroke-linejoin="round" stroke-width="1.5" style="paint-order:normal"/><rect x="235.5" y="391.5" width="7.8" height="7.8" ry=".6" fill="none" opacity="1" stroke="var(--color)" stroke-linejoin="round" stroke-width="1.5" style="paint-order:normal"/><rect x="248.5" y="391.5" width="7.8" height="7.8" ry=".6" fill="none" opacity="1" stroke="var(--color)" stroke-linejoin="round" stroke-width="1.5" style="paint-order:normal"/><rect x="260.5" y="391.5" width="7.8" height="7.8" ry=".6" fill="none" opacity="1" stroke="var(--color)" stroke-linejoin="round" stroke-width="1.5" style="paint-order:normal"/><rect x="260.5" y="367.5" width="7.8" height="19.8" ry="1.6" fill="none" opacity="1" stroke="var(--color)" stroke-linejoin="round" stroke-width="1.5" style="paint-order:normal"/><g fill="var(--color)" opacity="1"><path d="m180 416-2 2v1l3 5a3 3 0 0 0 4 0l20 20-14 14c-3-1-7 0-10 2-2 2-3 5-3 7a2 2 0 0 0 3 2l4-3 5 1 1 5-3 3-1 3a2 2 0 0 0 2 1 11 11 0 0 0 10-14l10-10 1 2 20 21a4 4 0 0 0 7 0l3-3a4 4 0 0 0 0-6l-21-21-2-1 10-10c4 1 8 0 11-3 1-1 3-4 3-7a2 2 0 0 0-4-1l-3 3-5-1-2-5 4-3v-3l-2-1a11 11 0 0 0-9 14l-14 13-20-20a3 3 0 0 0 0-4l-5-3h-1zm49 2c1 0 1 0 0 0l-3 4-1 1 2 6 1 1 6 1h1l4-4a9 9 0 0 1-11 8l-2 1-11 11-1-1-1-1 11-11a1 1 0 0 0-1-1l-14 13-1-2 13-13 1-2a9 9 0 0 1 7-11zm-49 0 4 3a1 1 0 0 1-1 1l-3-3v-1zm26 28 2 1-13 14a1 1 0 0 0 1 1l11-11 1 1 1 1-11 11-1 2a9 9 0 0 1-8 11l4-4v-1l-1-6-1-1-6-2a1 1 0 0 0-1 1l-4 4a9 9 0 0 1 11-8l2-1 13-13zm6 1 1 1-3 3h-1v-2l2-2h1zm4 2 2 1 20 20a2 2 0 0 1 0 3l-3 3h-3l-20-20a2 2 0 0 1 0-3l3-3 1-1z" stroke-width=".1"/><path d="M216 453a1 1 0 0 0-1 1l19 19a1 1 0 0 0 1 0v-1z"/></g><path d="M290 380c-4 0-7 3-7 7v32c1 3 2 6 5 8l9 3s7-1 10-3c2-2 4-4 4-6l1-3v-31c0-4-3-7-7-7z" fill="none" opacity="1" stroke="var(--color)" stroke-linejoin="round" stroke-width="1.9" style="paint-order:normal"/><rect x="295.2" y="387" width="4.9" height="10.5" ry="2.4" fill="none" opacity="1" stroke="var(--color)" stroke-linejoin="round" stroke-width="2" style="paint-order:normal"/><path d="M283 393h12M300 393h12M298 380v7" fill="none" opacity="1" stroke="var(--color)" stroke-width="2"/><g fill="var(--color)"><path d="m89 426-5 1h-6l-5-1-1-5v-24h17l1 1v23l-1 5zm-15-27v22l1 3 3 1h6l3-1 1-3-1-22z"/><path d="M87 398a1 1 0 0 1-2 0v-11h-9v10l-2 2-1-2v-7l2-4 4-2 4 1c4 0 5 1 5 5v8h-1z"/><path d="M78 395v1-1h-1l1-1a1 1 0 0 1 1 1h-1zM79 393a1 1 0 0 1-1 0v-4a1 1 0 1 1 1 0v4z"/><path d="M81 395a1 1 0 0 1-1 0v-6a1 1 0 1 1 1 0v6z"/><path d="M83 396a1 1 0 0 1-1-1v-6a1 1 0 1 1 1 0v7z"/></g><path d="M141 481v23h31v-25h-2v-6h2v-16h-24l-7 7v13h2v4z" fill="none" stroke="var(--color)"/><path fill="var(--color)" d="M141 465h3v7h-3z"/><path fill="var(--color)" stroke="var(--color)" d="M170 470h2v3h-2z"/><path d="M146 496h20" fill="none" stroke="var(--color)" stroke-linecap="round" stroke-width="1.6"/><path d="M150 457v7M154 457v7M157 457v7M161 457v7M164 457v7M168 457v7" fill="none" stroke="var(--color)" stroke-linecap="round" stroke-width="1.5"/><path d="M391 387c-3 0-5 3-5 6v23h2v-23c0-3 1-4 3-4h99c2 0 4 1 4 4v63h-1v7c1 3-1 4-3 4h-78v2h78c3 0 5-3 5-6v-71c0-2-2-5-5-5zm23 82h-2v13c0 3-2 5-5 5h-38c-3 0-5-2-5-5v-61c0-3 2-5 5-5h17v-2h-17c-4 0-6 3-6 7v61c0 3 2 6 6 6h38c4 0 7-3 7-6zm-26-53h5v-2h-5zm5 0h1v-20l2-1h89l1 1v51l-1 1h-73v2h73c2 0 3-1 3-3v-51c0-1-1-2-3-2h-89c-2 0-3 1-3 2zm21 34h-2v4h2zm-2 4v2h82v-2h-82zm2 2h-2v11h2zm-20-40h13l3 1h2c-1-2-2-3-5-3h-13zm16 1 2 1h8v17h-8v2h9l1-1v-18l-1-1zm4 20h-2v4h2zm-2 4v2h9a1 1 0 1 0 0-2zm2 2h-2v5h2zm-2-25v17h2v-14l-1-3z" color="#000" fill="var(--color)" style="-inkscape-stroke:none"/><path d="M436 461a1 1 0 0 0-1 1 1 1 0 0 0 1 1h10a1 1 0 0 0 1-1 1 1 0 0 0-1-1h-10zM421 480a1 1 0 0 0-1 1 1 1 0 0 0 1 0h39a1 1 0 0 0 1 0 1 1 0 0 0-1-1h-39z" color="#000" fill="var(--color)" stroke-linecap="round" style="-inkscape-stroke:none"/><path d="m431 467-3 13 2 1 2-13zM451 467l-2 1 3 13 1-1-2-13z" color="#000" fill="var(--color)" style="-inkscape-stroke:none"/><g stroke-linecap="round"><path d="M368 423h41v53h-41z" fill="none" stroke="var(--color)" stroke-width="1.5"/><path d="M374 431h29v5h-29zM374 443h13v12h-13zM390 443h13v12h-13z" fill="none" stroke="var(--color)" stroke-width="1.5"/><path d="M374 461h13M386 419h4M374 466h13M390 461h13M390 466h13" fill="none" stroke="var(--color)" stroke-linejoin="round" stroke-width="1.5"/><path d="M387 481a1 1 0 0 0-1 0 1 1 0 0 0 1 1h4a1 1 0 0 0 0-1z" color="#000" fill="var(--color)" stroke-linejoin="round" style="-inkscape-stroke:none"/></g><path d="M432 441a1 1 0 0 0-1 1 1 1 0 0 0 1 1h18a1 1 0 0 0 1-1 1 1 0 0 0-1-1zM402 401a1 1 0 0 0 0 1v8h77a1 1 0 0 0 1 0v-8a1 1 0 0 0-1-1zm1 2h75v6h-75zM460 417a1 1 0 0 0 0 1v18a1 1 0 0 0 0 1h19a1 1 0 0 0 1-1v-18a1 1 0 0 0-1-1zm1 1h17v17h-17zM432 417a1 1 0 0 0-1 1v18a1 1 0 0 0 1 1h18a1 1 0 0 0 1-1v-18a1 1 0 0 0-1-1zm0 1h17v17h-17zM460 441a1 1 0 0 0 0 1 1 1 0 0 0 0 1h19a1 1 0 0 0 0-1 1 1 0 0 0 0-1z" color="#000" fill="var(--color)" stroke-linecap="round" stroke-linejoin="round" style="-inkscape-stroke:none"/><rect x="235.3" y="120.4" width="31.5" height="59.8" ry="7.2" fill="none" opacity="1" stroke="var(--color)" stroke-linecap="round" stroke-linejoin="round" stroke-width="1.5"/><path d="M235 129h32M235 171h32" fill="none" stroke="var(--color)" stroke-width="1.5"/><path d="M248 125h5M249 176h4" fill="none" stroke="var(--color)" stroke-linecap="round" stroke-width="1.5"/><rect x="238.8" y="134.8" width="6.3" height="6.4" ry="0" fill="none" opacity="1" stroke="var(--color)" stroke-linecap="round" stroke-linejoin="round" stroke-width="1.2"/><rect x="247.8" y="134.8" width="6.3" height="6.4" ry="0" fill="none" opacity="1" stroke="var(--color)" stroke-linecap="round" stroke-linejoin="round" stroke-width="1.2"/><rect x="256.8" y="134.8" width="6.3" height="6.4" ry="0" fill="none" opacity="1" stroke="var(--color)" stroke-linecap="round" stroke-linejoin="round" stroke-width="1.2"/><rect x="238.8" y="143.8" width="6.3" height="6.4" ry="0" fill="none" opacity="1" stroke="var(--color)" stroke-linecap="round" stroke-linejoin="round" stroke-width="1.2"/><rect x="247.8" y="143.8" width="6.3" height="6.4" ry="0" fill="none" opacity="1" stroke="var(--color)" stroke-linecap="round" stroke-linejoin="round" stroke-width="1.2"/><rect x="256.8" y="143.8" width="6.3" height="6.4" ry="0" fill="none" opacity="1" stroke="var(--color)" stroke-linecap="round" stroke-linejoin="round" stroke-width="1.2"/><rect x="238.8" y="152.8" width="6.3" height="6.4" ry="0" fill="none" opacity="1" stroke="var(--color)" stroke-linecap="round" stroke-linejoin="round" stroke-width="1.2"/><rect x="247.8" y="152.8" width="6.3" height="6.4" ry="0" fill="none" opacity="1" stroke="var(--color)" stroke-linecap="round" stroke-linejoin="round" stroke-width="1.2"/><rect x="256.8" y="160.8" width="6.3" height="6.4" ry="0" fill="none" opacity="1" stroke="var(--color)" stroke-linecap="round" stroke-linejoin="round" stroke-width="1.2"/><path d="m335 477-1-6c0-2-3-3-4-5l-1-10-4-9c0-1 0-2 2-2 1-1 3 0 4 3 2 3 3 11 3 11v-26l1-7 1-1h2l1 1 1 3v10a2237 2237 0 0 1 0 4v-2l2-2 2 1 1 1 1 3v8-10l3-1 2 1v3l1 7v-9h2l2 1v14l-2 8-3 4-1 3v4M331 477h24v11h-24z" fill="none" opacity="1" stroke="var(--color)" stroke-linecap="round" stroke-linejoin="round" stroke-width="1.6"/><rect x="347.5" y="482.1" width="3.6" height=".8" ry=".4" fill="none" opacity="1" stroke="var(--color)" stroke-linecap="round" stroke-linejoin="round"/><path d="M337 415c-2 0-4 0-6 2l1 1 5-2 5 2 1-1c-1-2-4-2-6-2zm0 3-4 1 1 1 3-1 3 1 1-1-4-1zm0 3h-2l1 2 1-1 1 1 1-2h-2z" fill="var(--color)" stroke="var(--color)" stroke-linecap="round" stroke-linejoin="round" stroke-width=".1"/><g fill="var(--color)"><path d="M345 131a13 13 0 0 0-1-17 13 13 0 0 0-19 0 13 13 0 0 0-1 17c3 4 5 9 5 14v5c0 2 1 4 4 4h4c2 0 4-2 4-4v-5c0-5 1-10 4-14zm-20-1-2-7c0-6 5-12 12-12a12 12 0 0 1 11 12c0 3 0 5-2 7-3 4-5 9-5 14h-9c0-5-2-10-5-14zm5 19 9 1zm0-2v-1h9v2zm3 5-2-1 7 1h-5z"/><path d="M326 124v-1a1 1 0 1 0-2 0v2a1 1 0 1 0 2-1zM331 138a1 1 0 0 0 1-2l-4-8-1-1a1 1 0 1 0-2 1l1 1c2 3 4 5 4 8l1 1zM344 126l-1 1-1 1a1 1 0 0 0 1 1l1-2v-1zM335 115a9 9 0 0 1 8 9 1 1 0 0 0 2 0v-1c0-6-5-10-10-10a1 1 0 0 0 0 2zM335 108l1-1v-5a1 1 0 0 0-2 0v5l1 1zM326 110a1 1 0 1 0 1-1l-2-4a1 1 0 1 0-1 1zM316 114l4 2a1 1 0 0 0 2 0l-1-1-4-3a1 1 0 1 0-1 2zM349 116l4-2a1 1 0 0 0-1-2l-4 3a1 1 0 0 0 1 1zM342 110a1 1 0 0 0 1 0l3-4a1 1 0 0 0-2-1l-2 4v1z"/></g><g fill="none" stroke="var(--color)" stroke-width="17"><path d="m144 308-5 6a6 6 0 1 1-9-9l11-11c3-3 7-3 9 0a2 2 0 0 0 3-3c-4-4-11-4-14 0l-12 11a10 10 0 1 0 14 14l6-5a2 2 0 0 0-3-3z" stroke-width="1.59681"/><path d="M169 288a10 10 0 1 0-14-14l-7 7a2 2 0 0 0 3 3l7-7a6 6 0 0 1 9 8l-13 13c-2 2-6 2-8 0a2 2 0 0 0-3 3c4 4 10 4 14 0z" stroke-width="1.59681"/></g><path d="M210 64a56 56 0 0 0-11 1l-8 4c-3 2-5 4-6 7l-4 10-1 14-5 13h8l1 17 11-3 3 18 32-12-1-8-1-6 2-6 2-6a58 58 0 0 0 1-27l-2-7-5-4a25 25 0 0 0-12-5h-4z" fill="none" stroke="var(--color)" stroke-linecap="round" stroke-linejoin="round" stroke-width="2"/></g></svg>